<?xml version="1.0" standalone="no"?>
<!DOCTYPE svg PUBLIC "-//W3C//DTD SVG 20010904//EN"
 "http://www.w3.org/TR/2001/REC-SVG-20010904/DTD/svg10.dtd">
<svg version="1.0" xmlns="http://www.w3.org/2000/svg"
 width="1440.000000pt" height="1440.000000pt" viewBox="0 0 1440.000000 1440.000000"
 preserveAspectRatio="xMidYMid meet">
<metadata>
Created by potrace 1.11, written by Peter Selinger 2001-2013
</metadata>
<g transform="translate(0.000000,1440.000000) scale(0.100000,-0.100000)"
fill="#000000" stroke="none">
<path d="M4492 13107 c-6 -12 -79 -193 -162 -402 -83 -209 -155 -389 -160
-400 -5 -11 -30 -74 -56 -140 -25 -66 -51 -131 -57 -145 -6 -14 -11 -27 -11
-30 -1 -3 -13 -34 -28 -70 -15 -36 -66 -164 -113 -285 -48 -121 -93 -233 -100
-250 -7 -16 -61 -151 -119 -300 -59 -148 -115 -290 -126 -315 -11 -25 -54
-133 -96 -240 -42 -107 -81 -206 -87 -220 -5 -14 -11 -29 -13 -35 -1 -5 -36
-93 -77 -195 -41 -102 -145 -363 -231 -580 -86 -217 -161 -404 -166 -415 -10
-23 -354 -887 -355 -895 -1 -3 -7 -16 -13 -30 -6 -14 -32 -79 -57 -145 -26
-66 -51 -129 -55 -140 -5 -11 -70 -175 -145 -365 -75 -190 -142 -358 -150
-375 -13 -31 -114 -284 -270 -680 -47 -121 -90 -229 -95 -240 -8 -18 -387
-969 -627 -1575 -46 -118 -89 -224 -94 -235 -4 -11 -90 -225 -189 -475 -99
-250 -187 -469 -195 -487 -8 -17 -15 -34 -15 -37 0 -3 -114 -292 -254 -643
-139 -351 -275 -692 -301 -758 -26 -66 -53 -134 -61 -152 -8 -17 -14 -33 -14
-36 0 -6 102 -40 905 -302 248 -81 514 -169 592 -195 100 -33 145 -44 151 -36
5 6 32 72 61 146 29 74 56 144 61 155 9 18 544 1361 593 1485 11 30 25 59 29
64 4 6 8 16 8 23 0 8 9 33 20 55 11 23 20 45 20 50 0 5 9 27 19 51 11 23 76
186 146 362 70 176 183 462 252 635 69 173 133 334 144 357 10 24 19 46 19 50
1 5 9 26 20 48 11 22 19 45 20 51 0 5 9 29 20 52 11 22 20 46 20 52 0 5 4 18
10 28 5 9 55 130 109 267 308 775 515 1293 527 1319 8 16 14 32 14 36 0 4 8
25 17 46 9 22 17 41 18 44 0 3 146 370 324 815 419 1050 1056 2647 1228 3080
74 187 139 349 144 360 5 11 130 326 279 700 149 374 275 689 279 700 39 86
91 230 88 240 -3 6 -25 17 -48 24 -24 6 -53 16 -64 21 -11 4 -36 14 -55 20
-68 23 -576 198 -665 230 -49 17 -115 40 -145 50 -83 28 -569 196 -616 213
-40 15 -42 14 -52 -6z"/>
<path d="M7205 7185 l0 -5155 3597 0 3598 0 0 1063 0 1064 -2377 0 c-1308 1
-2386 2 -2396 2 -16 1 -17 57 -15 1068 l3 1068 2138 0 2137 0 0 1000 0 1000
-2140 -1 -2140 -1 0 972 c0 770 3 974 13 977 6 2 1025 3 2263 2 l2251 -1 0
1049 0 1048 -3466 0 -3466 0 0 -5155z"/>
</g>
</svg>
