<svg width="29" height="28" viewBox="0 0 29 28" fill="none" xmlns="http://www.w3.org/2000/svg">
<circle cx="14.8939" cy="13.9647" r="13.9647" fill="#FF0200"/>
<g clip-path="url(#clip0)">
<path fill-rule="evenodd" clip-rule="evenodd" d="M17.4163 7.81115C17.4922 7.85517 17.551 7.92364 17.5829 8.00537C17.6149 8.0871 17.6183 8.17726 17.5924 8.26113L16.1951 12.8012H18.7732C18.8489 12.8012 18.923 12.8233 18.9864 12.8649C19.0497 12.9065 19.0994 12.9658 19.1294 13.0353C19.1595 13.1049 19.1685 13.1817 19.1554 13.2563C19.1422 13.3309 19.1075 13.4001 19.0556 13.4552L12.849 20.0496C12.789 20.1135 12.7091 20.1551 12.6223 20.1678C12.5356 20.1804 12.4471 20.1633 12.3713 20.1192C12.2956 20.0751 12.237 20.0066 12.2051 19.925C12.1732 19.8433 12.17 19.7532 12.1958 19.6695L13.593 15.1286H11.015C10.9393 15.1287 10.8651 15.1065 10.8018 15.0649C10.7385 15.0233 10.6888 14.9641 10.6587 14.8945C10.6287 14.825 10.6197 14.7481 10.6328 14.6735C10.646 14.5989 10.6806 14.5298 10.7326 14.4746L16.9391 7.8802C16.9991 7.81643 17.0789 7.77482 17.1655 7.76215C17.2522 7.74947 17.3405 7.76647 17.4163 7.81038V7.81115Z" fill="white"/>
</g>
<defs>
<clipPath id="clip0">
<rect width="12.413" height="12.413" fill="white" transform="translate(8.6875 7.7583)"/>
</clipPath>
</defs>
</svg>
