<svg width="28" height="28" viewBox="0 0 28 28" fill="none" xmlns="http://www.w3.org/2000/svg">
<circle cx="13.9648" cy="13.9647" r="13.9647" transform="rotate(90 13.9648 13.9647)" fill="#FF0200"/>
<path d="M13.577 10.0856C14.2911 10.0856 14.87 9.50665 14.87 8.79254C14.87 8.07842 14.2911 7.49951 13.577 7.49951C12.8628 7.49951 12.2839 8.07842 12.2839 8.79254C12.2839 9.50665 12.8628 10.0856 13.577 10.0856Z" fill="white"/>
<path d="M18.7361 15.7776C18.7069 15.6311 18.6277 15.4992 18.5122 15.4045C18.3967 15.3097 18.252 15.2579 18.1026 15.2578H15.4305L15.1532 13.3182H18.1026V12.0252H14.9689L14.8635 11.2869C14.8414 11.1329 14.7646 10.992 14.647 10.8901C14.5294 10.7882 14.3791 10.7322 14.2235 10.7322H13.577C13.4844 10.7325 13.393 10.7526 13.3088 10.7912C13.2247 10.8298 13.1498 10.8859 13.0891 10.9559C13.0285 11.0258 12.9836 11.1079 12.9573 11.1967C12.931 11.2855 12.9241 11.3788 12.9369 11.4705L13.5039 15.4414C13.5492 15.7489 13.7033 16.0299 13.9382 16.2335C14.1731 16.437 14.4732 16.5496 14.784 16.5508H17.5724L18.1148 19.2636C18.1756 19.5655 18.4407 19.7834 18.7491 19.7834H20.6886V18.4903H19.2786L18.7361 15.7776V15.7776Z" fill="white"/>
<path d="M15.8461 17.5206C15.3683 18.4748 14.3915 19.1369 13.2536 19.1369C12.4823 19.136 11.7428 18.8292 11.1974 18.2838C10.6519 17.7384 10.3451 16.9989 10.3443 16.2276C10.3454 15.6483 10.5193 15.0825 10.8437 14.6026C11.1681 14.1227 11.6284 13.7504 12.1655 13.5336L11.9787 12.2244C10.2829 12.7655 9.05127 14.3553 9.05127 16.2276C9.05127 18.5447 10.9365 20.4299 13.2536 20.4299C13.9743 20.4289 14.6827 20.2425 15.3105 19.8885C15.9384 19.5346 16.4646 19.025 16.8385 18.4089L16.6614 17.5206H15.8461Z" fill="white"/>
</svg>
