<svg width="29" height="28" viewBox="0 0 29 28" fill="none" xmlns="http://www.w3.org/2000/svg">
<circle cx="14.8939" cy="13.9647" r="13.9647" fill="#FFDB5A"/>
<g clip-path="url(#clip0)">
<path fill-rule="evenodd" clip-rule="evenodd" d="M17.4163 7.81103C17.4922 7.85505 17.551 7.92352 17.5829 8.00525C17.6149 8.08698 17.6183 8.17714 17.5924 8.26101L16.1951 12.8011H18.7732C18.8489 12.801 18.923 12.8232 18.9864 12.8648C19.0497 12.9064 19.0994 12.9657 19.1294 13.0352C19.1595 13.1048 19.1685 13.1816 19.1554 13.2562C19.1422 13.3308 19.1075 13.4 19.0556 13.4551L12.849 20.0495C12.789 20.1134 12.7091 20.155 12.6223 20.1676C12.5356 20.1803 12.4471 20.1631 12.3713 20.119C12.2956 20.0749 12.237 20.0065 12.2051 19.9248C12.1732 19.8432 12.17 19.7531 12.1958 19.6694L13.593 15.1285H11.015C10.9393 15.1285 10.8651 15.1064 10.8018 15.0648C10.7385 15.0232 10.6888 14.9639 10.6587 14.8944C10.6287 14.8248 10.6197 14.748 10.6328 14.6734C10.646 14.5988 10.6806 14.5296 10.7326 14.4745L16.9391 7.88008C16.9991 7.81631 17.0789 7.7747 17.1655 7.76202C17.2522 7.74935 17.3405 7.76635 17.4163 7.81026V7.81103Z" fill="white"/>
</g>
<defs>
<clipPath id="clip0">
<rect width="12.413" height="12.413" fill="white" transform="translate(8.6875 7.75818)"/>
</clipPath>
</defs>
</svg>
