<svg width="28" height="28" viewBox="0 0 28 28" fill="none" xmlns="http://www.w3.org/2000/svg">
<circle cx="13.9645" cy="13.9647" r="13.9647" transform="rotate(90 13.9645 13.9647)" fill="#467AFF"/>
<path d="M13.5772 10.0854C14.2913 10.0854 14.8702 9.50653 14.8702 8.79241C14.8702 8.0783 14.2913 7.49939 13.5772 7.49939C12.8631 7.49939 12.2842 8.0783 12.2842 8.79241C12.2842 9.50653 12.8631 10.0854 13.5772 10.0854Z" fill="white"/>
<path d="M18.7361 15.7773C18.7069 15.6308 18.6277 15.499 18.5122 15.4042C18.3967 15.3094 18.252 15.2576 18.1026 15.2575H15.4305L15.1532 13.318H18.1026V12.025H14.9689L14.8635 11.2866C14.8414 11.1326 14.7646 10.9918 14.647 10.8899C14.5294 10.788 14.3791 10.7319 14.2235 10.7319H13.577C13.4844 10.7322 13.393 10.7524 13.3088 10.7909C13.2247 10.8295 13.1498 10.8857 13.0891 10.9556C13.0285 11.0256 12.9836 11.1077 12.9573 11.1965C12.931 11.2852 12.9241 11.3786 12.9369 11.4703L13.5039 15.4411C13.5492 15.7486 13.7033 16.0297 13.9382 16.2332C14.1731 16.4368 14.4732 16.5494 14.784 16.5505H17.5724L18.1148 19.2633C18.1756 19.5652 18.4407 19.7831 18.7491 19.7831H20.6886V18.4901H19.2786L18.7361 15.7773Z" fill="white"/>
<path d="M15.8461 17.5203C15.3683 18.4746 14.3915 19.1366 13.2536 19.1366C12.4823 19.1358 11.7428 18.829 11.1974 18.2836C10.6519 17.7382 10.3451 16.9987 10.3443 16.2273C10.3454 15.648 10.5193 15.0822 10.8437 14.6023C11.1681 14.1224 11.6284 13.7502 12.1655 13.5333L11.9787 12.2241C10.2829 12.7653 9.05127 14.355 9.05127 16.2273C9.05127 18.5444 10.9365 20.4297 13.2536 20.4297C13.9743 20.4287 14.6827 20.2422 15.3105 19.8883C15.9384 19.5343 16.4646 19.0248 16.8385 18.4087L16.6614 17.5203H15.8461Z" fill="white"/>
</svg>
