<svg width="14" height="14" viewBox="0 0 14 14" fill="none" xmlns="http://www.w3.org/2000/svg">
<circle cx="7" cy="7" r="7" fill="#CA87FF"/>
<path d="M7.05859 7.91797H6.125V10H4.95312V4.3125H7.06641C7.73828 4.3125 8.25651 4.46224 8.62109 4.76172C8.98568 5.0612 9.16797 5.48438 9.16797 6.03125C9.16797 6.41927 9.08333 6.74349 8.91406 7.00391C8.7474 7.26172 8.49349 7.46745 8.15234 7.62109L9.38281 9.94531V10H8.125L7.05859 7.91797ZM6.125 6.96875H7.07031C7.36458 6.96875 7.59245 6.89453 7.75391 6.74609C7.91536 6.59505 7.99609 6.38802 7.99609 6.125C7.99609 5.85677 7.91927 5.64583 7.76562 5.49219C7.61458 5.33854 7.38151 5.26172 7.06641 5.26172H6.125V6.96875Z" fill="white"/>
</svg>
