<svg width="28" height="28" viewBox="0 0 28 28" fill="none" xmlns="http://www.w3.org/2000/svg">
<circle cx="14" cy="14" r="14" fill="#FF0200"/>
<path d="M19.6121 12.2255L16.0148 11.6781L14.4067 8.2641C14.3627 8.17063 14.2905 8.09496 14.2012 8.04897C13.9774 7.93324 13.7053 8.02968 13.5934 8.2641L11.9853 11.6781L8.38791 12.2255C8.28873 12.2404 8.19805 12.2893 8.12863 12.3635C8.0447 12.4539 7.99845 12.5754 8.00004 12.7014C8.00163 12.8274 8.05094 12.9477 8.13713 13.0356L10.7399 15.6929L10.125 19.4452C10.1105 19.5324 10.1198 19.6222 10.1516 19.7043C10.1834 19.7864 10.2366 19.8575 10.305 19.9095C10.3734 19.9616 10.4544 19.9925 10.5388 19.9988C10.6232 20.0051 10.7076 19.9865 10.7824 19.9452L14 18.1736L17.2177 19.9452C17.3055 19.9941 17.4075 20.0104 17.5053 19.9926C17.7518 19.9481 17.9176 19.7033 17.8751 19.4452L17.2602 15.6929L19.8629 13.0356C19.9338 12.9629 19.9805 12.868 19.9947 12.7641C20.033 12.5045 19.8601 12.2641 19.6121 12.2255Z" fill="white"/>
</svg>
