<svg width="1440" height="846" viewBox="0 0 1440 846" fill="none" xmlns="http://www.w3.org/2000/svg">
<path d="M-41 746C-12.4489 692.186 113.452 583.797 388.648 580.754C732.643 576.95 702.25 474.675 805.172 430.722C908.094 386.769 1302.51 367.751 1358.46 175.035C1403.23 20.8615 1514.81 -3.87606 1565 3.0268" stroke="#FF4848" stroke-width="3"/>
<path d="M-41 779C-12.4489 725.186 113.452 616.797 388.648 613.754C732.643 609.95 702.25 507.675 805.172 463.722C908.094 419.769 1302.51 400.751 1358.46 208.035C1403.23 53.8615 1514.81 29.1239 1565 36.0268" stroke="#FF4848" stroke-width="3"/>
<path d="M-41 812C-12.4489 758.186 113.452 649.797 388.648 646.754C732.643 642.95 702.25 540.675 805.172 496.722C908.094 452.769 1302.51 433.751 1358.46 241.035C1403.23 86.8615 1514.81 62.1239 1565 69.0268" stroke="#FF4848" stroke-width="3"/>
<path d="M-41 845C-12.4489 791.186 113.452 682.797 388.648 679.754C732.643 675.95 702.25 573.675 805.172 529.722C908.094 485.769 1302.51 466.751 1358.46 274.035C1403.23 119.862 1514.81 95.1239 1565 102.027" stroke="#FF4848" stroke-width="3"/>
</svg>
