<svg width="1440" height="1043" viewBox="0 0 1440 1043" fill="none" xmlns="http://www.w3.org/2000/svg">
<path d="M-92.6582 810.826C-57.6114 758.367 49.8807 650.927 199.474 640.839C386.466 628.228 485.161 689.704 675.511 625.18C865.861 560.657 883.171 472.387 1066.68 459.45C1250.19 446.513 1562.4 281.923 1585.72 151.027" stroke="#FF4848" stroke-width="3"/>
<path d="M-95.1768 837.709C-60.1299 785.25 47.3621 677.809 196.956 667.721C383.948 655.111 482.643 716.586 672.993 652.063C863.342 587.539 880.652 499.269 1064.16 486.333C1247.67 473.396 1559.88 308.805 1583.2 177.909" stroke="#FF4848" stroke-width="3"/>
<path d="M-100.215 891.473C-65.168 839.014 42.3241 731.574 191.918 721.485C378.91 708.875 477.605 770.351 667.954 705.827C858.304 641.304 875.614 553.034 1059.12 540.097C1242.63 527.16 1554.85 362.57 1578.16 231.674" stroke="#FF4848" stroke-width="3"/>
<path d="M-97.6963 864.591C-62.6495 812.132 44.8426 704.691 194.436 694.603C381.428 681.993 480.123 743.468 670.473 678.945C860.823 614.421 878.133 526.151 1061.64 513.215C1245.15 500.278 1557.36 335.687 1580.68 204.791" stroke="#FF4848" stroke-width="3"/>
</svg>
