<svg width="1440" height="1249" viewBox="0 0 1440 1249" fill="none" xmlns="http://www.w3.org/2000/svg">
<path d="M-123 94C-102.5 145.5 -11.2 260.8 190 310C441.5 371.5 472.5 561.5 515 687C557.5 812.5 676 819.5 842 879C1008 938.5 1086 1066 1188 1182.5C1269.6 1275.7 1410.33 1248.33 1470.5 1223" stroke="#FF4848" stroke-width="3"/>
<path d="M-123 63C-102.5 114.5 -11.2 229.8 190 279C441.5 340.5 472.5 530.5 515 656C557.5 781.5 676 788.5 842 848C1008 907.5 1086 1035 1188 1151.5C1269.6 1244.7 1410.33 1217.33 1470.5 1192" stroke="#FF4848" stroke-width="3"/>
<path d="M-123 32C-102.5 83.5 -11.2 198.8 190 248C441.5 309.5 472.5 499.5 515 625C557.5 750.5 676 757.5 842 817C1008 876.5 1086 1004 1188 1120.5C1269.6 1213.7 1410.33 1186.33 1470.5 1161" stroke="#FF4848" stroke-width="3"/>
<path d="M-123 1C-102.5 52.5 -11.2 167.8 190 217C441.5 278.5 472.5 468.5 515 594C557.5 719.5 676 726.5 842 786C1008 845.5 1086 973 1188 1089.5C1269.6 1182.7 1410.33 1155.33 1470.5 1130" stroke="#FF4848" stroke-width="3"/>
</svg>
