<svg width="1440" height="1109" viewBox="0 0 1440 1109" fill="none" xmlns="http://www.w3.org/2000/svg">
<path d="M-293.8 421.529C-235.516 396.739 -88.4311 392.498 33.6359 573.847C186.22 800.533 407.963 778.046 545.817 758.914C683.671 739.781 819.042 849.585 903.933 864.892C1140.18 907.49 1457.53 715.042 1457.53 715.042" stroke="#FF4848" stroke-width="3"/>
<path d="M-300.208 389.157C-241.924 364.368 -94.8393 360.126 27.2277 541.475C179.812 768.161 401.555 745.675 539.409 726.542C677.263 707.409 812.634 817.213 897.525 832.52C1133.77 875.119 1451.12 682.67 1451.12 682.67" stroke="#FF4848" stroke-width="3"/>
<path d="M-306.616 356.785C-248.332 331.996 -101.248 327.754 20.8195 509.103C173.403 735.789 395.147 713.303 533.001 694.17C670.854 675.038 806.226 784.841 891.117 800.148C1127.36 842.747 1444.71 650.299 1444.71 650.299" stroke="#FF4848" stroke-width="3"/>
<path d="M-312.441 327.356C-254.157 302.567 -107.073 298.325 14.9943 479.674C167.578 706.36 389.322 683.874 527.175 664.741C665.029 645.609 800.401 755.412 885.291 770.719C1121.53 813.318 1438.89 620.87 1438.89 620.87" stroke="#FF4848" stroke-width="3"/>
</svg>
